<?xml version="1.0" encoding="UTF-8"?>
<svg id="Livello_1" data-name="Livello 1" xmlns="http://www.w3.org/2000/svg" viewBox="0 0 248.14 167.99">
  <defs>
    <style>
      .cls-1 {
        fill: #010101;
        stroke-width: 0px;
      }
    </style>
  </defs>
  <path class="cls-1" d="m220.53,10.92c-16.7-3.64-30.34,1.02-42.37,11.34-11.88,10.2-20.75,22.89-27.22,36.88-10.12,21.88-19.07,44.3-28.6,66.45-5.46,12.69-10.92,25.39-16.74,37.91-.91,1.95-3.76,4.15-5.71,4.14-1.94-.01-4.77-2.25-5.66-4.21-18.6-41.35-36.98-82.81-55.4-124.24-1.01-2.28-2.04-4.56-4.09-6.8-.12,1.77-.33,3.54-.33,5.31-.02,32.13-.03,64.25,0,96.38.01,14.11,6.58,22.57,20.52,25.67,5.19,1.16,3.83,4.21,3.46,7.81H.11c-.53-4.62.84-6.98,5.53-8.01,10.9-2.38,16.95-10.15,16.98-21.35.08-34.66.08-69.32,0-103.97-.03-11.28-6.58-19.7-17.36-21.77C.23,11.5-.15,9.08,1.19,4.51c1.89-.1,3.96-.31,6.03-.31,16.94-.03,33.88.17,50.82-.14,4.86-.09,7.18,1.53,9.09,5.96,14.31,33.25,28.9,66.38,43.41,99.54.75,1.71,1.61,3.36,2.9,6.02,5.94-12.87,11.35-24.69,16.85-36.48,5.43-11.64,10.12-23.71,16.58-34.75C160.1,21.69,179.35,6.22,205.57.96c17.71-3.56,32.31,2.98,40.02,16.94,3.86,6.99,3.34,12.55-1.64,17.58-4.51,4.55-11.06,5.64-16.66,2.77-6.25-3.21-9.65-9.71-8.56-16.43.58-3.57,1.17-7.13,1.8-10.91Z"/>
  <path class="cls-1" d="m152.95,167.56v-6.18c.66-.25,1.33-.59,2.04-.77,9.28-2.25,12.72-6.36,12.58-16.07-.24-15.84.63-31.48,5.81-46.66,7.8-22.9,22.92-33.85,45.67-33.23,4.75.13,5.29,2.28,5.33,6.14.04,3.94-.6,6.3-5.36,5.98-5.18-.35-10.41-.08-15.88-.08,0,23.59-.64,46.5.35,69.33.34,7.91,7.26,13.03,15.39,14.87,2.6.59,5.61,1.02,4.35,4.44-.49,1.35-3.44,2.52-5.28,2.54-19.85.18-39.7.12-59.56.09-1.7,0-3.41-.24-5.44-.39Z"/>
</svg>