<?xml version="1.0" encoding="UTF-8"?>
<svg id="Livello_1" data-name="Livello 1" xmlns="http://www.w3.org/2000/svg" viewBox="0 0 212.33 143.75">
  <defs>
    <style>
      .cls-1 {
        fill: #010101;
        stroke-width: 0px;
      }
    </style>
  </defs>
  <path class="cls-1" d="m188.71,9.34c-14.29-3.12-25.96.87-36.26,9.71-10.17,8.72-17.76,19.59-23.29,31.56-8.66,18.72-16.32,37.9-24.47,56.86-4.67,10.86-9.34,21.72-14.32,32.44-.78,1.67-3.22,3.55-4.88,3.54-1.66-.01-4.09-1.92-4.84-3.6-15.92-35.39-31.64-70.86-47.4-106.32-.87-1.95-1.74-3.9-3.5-5.82-.1,1.52-.28,3.03-.28,4.55-.02,27.49-.03,54.98,0,82.47,0,12.07,5.63,19.31,17.56,21.96,4.45.99,3.28,3.6,2.96,6.68H.09c-.45-3.95.72-5.97,4.73-6.85,9.33-2.04,14.5-8.69,14.53-18.27.07-29.66.07-59.31,0-88.97-.02-9.65-5.63-16.86-14.86-18.63C.2,9.84-.12,7.77,1.01,3.86c1.62-.09,3.39-.26,5.16-.27,14.5-.02,28.99.15,43.48-.12,4.16-.08,6.14,1.31,7.78,5.1,12.25,28.45,24.73,56.8,37.14,85.17.64,1.46,1.38,2.88,2.48,5.15,5.08-11.01,9.72-21.13,14.42-31.21,4.64-9.96,8.66-20.29,14.18-29.73,11.34-19.4,27.81-32.63,50.25-37.14,15.16-3.05,27.65,2.55,34.24,14.5,3.3,5.99,2.86,10.74-1.4,15.05-3.86,3.9-9.46,4.83-14.25,2.37-5.35-2.74-8.25-8.31-7.32-14.06.49-3.05,1-6.1,1.54-9.33Z"/>
  <path class="cls-1" d="m130.88,143.39v-5.29c.56-.22,1.13-.51,1.74-.66,7.94-1.93,10.89-5.44,10.76-13.75-.2-13.56.54-26.93,4.97-39.93,6.68-19.59,19.61-28.96,39.08-28.44,4.06.11,4.53,1.95,4.56,5.25.03,3.37-.52,5.39-4.59,5.12-4.43-.3-8.9-.07-13.59-.07,0,20.19-.55,39.79.3,59.33.29,6.77,6.21,11.15,13.17,12.72,2.22.5,4.8.88,3.72,3.8-.42,1.15-2.94,2.16-4.52,2.17-16.99.15-33.97.1-50.96.08-1.46,0-2.91-.2-4.65-.33Z"/>
</svg>