<?xml version="1.0" encoding="UTF-8" standalone="no"?>
<!DOCTYPE svg PUBLIC "-//W3C//DTD SVG 1.1//EN" "http://www.w3.org/Graphics/SVG/1.1/DTD/svg11.dtd">
<svg width="100%" height="100%" viewBox="0 0 692 155" version="1.1" xmlns="http://www.w3.org/2000/svg" xmlns:xlink="http://www.w3.org/1999/xlink" xml:space="preserve" xmlns:serif="http://www.serif.com/" style="fill-rule:evenodd;clip-rule:evenodd;stroke-miterlimit:2;">
    <g transform="matrix(4.16667,0,0,4.16667,0,0)">
        <path d="M103.573,24.904C103.442,24.992 103.399,25.492 103.465,25.601C104.184,25.601 105.249,25.537 106.36,25.537C107.491,25.537 108.93,25.601 109.583,25.601C109.715,25.492 109.778,25.013 109.715,24.904L108.256,24.708C107.622,24.578 107.536,24.294 107.622,23.554C107.71,22.683 107.993,20.941 108.21,19.634C108.21,19.57 108.276,19.482 108.342,19.482C108.995,19.482 111.042,19.46 111.76,19.548C112.174,19.591 112.393,19.789 112.479,20.267L112.544,21.29C112.651,21.398 113.196,21.398 113.284,21.269C113.37,20.572 113.458,19.744 113.59,19.046C113.741,18.175 113.915,17.437 114.047,16.956C113.938,16.871 113.37,16.783 113.264,16.871C113.11,17.283 113.001,17.566 112.893,17.806C112.719,18.22 112.501,18.437 111.979,18.482C111.26,18.525 109.126,18.525 108.516,18.525C108.45,18.525 108.385,18.46 108.407,18.372C108.581,17.13 109.038,14.214 109.233,13.386C109.256,13.255 109.452,12.994 109.583,12.994C110.02,12.994 112.217,12.994 113.001,13.039C113.458,13.06 113.784,13.255 113.85,13.8C113.915,14.236 113.938,14.845 113.958,15.39C114.067,15.476 114.612,15.476 114.698,15.367C114.917,14.193 115.2,12.951 115.483,12.277C115.483,12.189 115.439,12.015 115.396,12.015C114.917,12.08 113.938,12.124 113.239,12.124L108.45,12.124C107.21,12.124 105.989,12.058 105.62,12.058C105.512,12.124 105.401,12.646 105.489,12.755C105.989,12.82 106.514,12.863 106.797,12.951C107.254,13.081 107.385,13.343 107.297,14.04C107.21,14.867 105.969,22.552 105.751,23.576C105.6,24.337 105.469,24.556 104.792,24.708C104.53,24.773 104.053,24.818 103.573,24.904ZM119.794,23.14C119.163,23.816 118.729,24.099 118.444,24.099C118.249,24.099 118.184,23.923 118.227,23.533C118.356,22.509 119.163,19.113 119.338,18.046C119.555,17.066 119.489,16.521 119.206,16.499C118.641,16.499 117.27,17.392 116.355,18.308C116.311,18.372 116.225,18.787 116.245,18.939C116.268,18.96 116.333,18.982 116.333,19.003C116.876,18.568 117.29,18.351 117.53,18.351C117.639,18.351 117.684,18.546 117.639,18.808C117.355,20.136 116.919,22.162 116.594,23.837C116.288,25.296 116.508,25.884 116.985,25.884C117.485,25.884 118.771,25.275 119.794,23.902C119.838,23.794 119.903,23.337 119.883,23.206C119.883,23.162 119.815,23.14 119.794,23.14ZM119.6,12.689C119.186,12.689 118.706,12.863 118.487,13.103C118.378,13.191 118.271,13.581 118.271,13.757C118.271,14.169 118.401,14.388 118.598,14.54C118.729,14.605 119.512,14.562 119.643,14.453C119.946,14.257 120.165,13.886 120.23,13.496C120.251,13.255 120.23,12.972 120.143,12.841C120.1,12.777 119.903,12.689 119.6,12.689ZM124.737,19.765C124.714,19.81 124.628,19.789 124.628,19.765C124.714,19.287 124.803,18.851 124.866,18.33C125.064,17.001 124.954,16.499 124.628,16.499C124.126,16.499 122.776,17.414 121.885,18.437C121.842,18.525 121.731,18.939 121.774,19.091C121.774,19.156 121.842,19.177 121.862,19.177C122.473,18.677 122.907,18.394 123.126,18.394C123.278,18.394 123.321,18.611 123.258,19.199C123.061,20.986 122.104,25.144 121.973,25.689C121.973,25.753 122.061,25.884 122.146,25.884C122.407,25.863 123.475,25.406 123.669,25.208C123.69,24.73 123.821,24.164 123.975,23.49C124.192,22.488 124.477,21.66 124.803,21.007C125.76,19.025 126.413,18.33 126.739,18.33C126.98,18.33 127.307,18.503 127.61,18.872C127.698,18.917 127.827,18.917 127.915,18.83C128.198,18.589 128.743,17.675 128.809,17.349C128.828,17.261 128.828,17.044 128.809,17.001C128.612,16.652 128.198,16.499 127.852,16.499C127.35,16.499 126.719,16.978 126.065,17.785C125.479,18.525 125.149,19.046 124.737,19.765ZM133.532,17.544C134.143,17.544 134.446,18.001 134.446,18.503C134.446,19.091 134.143,19.527 133.663,19.831C133.012,20.224 132.073,20.527 131.399,20.658C131.355,20.658 131.313,20.593 131.333,20.527C131.639,18.46 132.706,17.544 133.532,17.544ZM134.534,16.499C133.73,16.499 132.292,17.154 131.422,17.915C130.093,19.07 129.526,21.203 129.526,22.792C129.526,24.359 130.071,25.863 131.684,25.863C132.987,25.863 134.688,25.056 135.689,23.664C135.774,23.511 135.842,23.14 135.842,22.988C135.842,22.923 135.753,22.835 135.731,22.835C134.645,23.947 133.663,24.382 132.792,24.382C131.616,24.382 131.159,23.423 131.159,22.117C131.159,21.986 131.159,21.833 131.182,21.726C131.202,21.638 131.27,21.55 131.333,21.55C131.987,21.333 132.901,21.029 133.815,20.572C135.231,19.853 136.036,19.046 135.993,17.98C135.95,17.109 135.34,16.499 134.534,16.499ZM137.932,19.222C138.409,18.787 138.909,18.372 139.172,18.372C139.323,18.372 139.346,18.568 139.323,18.872C139.085,20.55 138.083,24.73 137.975,25.644C137.975,25.753 138.083,25.906 138.192,25.884C138.432,25.863 139.454,25.427 139.694,25.187C139.628,24.882 139.803,24.078 139.979,23.292C140.151,22.595 140.479,21.681 140.782,21.203C142.024,19.177 143.374,18.068 144.026,18.068C144.419,18.068 144.483,18.46 144.311,19.33C144.069,20.527 143.723,22.14 143.396,23.685C143.112,25.165 143.243,25.884 143.7,25.884C144.311,25.884 145.682,25.122 146.51,23.968C146.596,23.859 146.661,23.314 146.641,23.206C146.618,23.119 146.573,23.097 146.553,23.076C145.856,23.837 145.442,24.056 145.202,24.056C145.008,24.056 144.985,23.794 145.028,23.49C145.159,22.595 145.442,21.246 145.79,19.57C146.184,17.654 146.184,16.499 145.355,16.499C144.94,16.499 144.594,16.63 144.157,16.871C142.981,17.48 141.741,18.656 140.674,20.115C140.651,20.158 140.608,20.136 140.608,20.115L140.893,18.525C141.153,17.154 141.065,16.499 140.674,16.499C140.151,16.499 138.866,17.349 137.932,18.437C137.887,18.503 137.801,18.982 137.844,19.134C137.844,19.177 137.909,19.244 137.932,19.222ZM155.065,17.261C154.521,17.261 153.497,17.023 152.735,16.826C152.063,16.673 151.256,16.499 150.95,16.499C150.667,16.499 150.405,16.695 150.299,16.826C149.885,17.328 149.1,18.72 148.86,19.265C148.817,19.353 149.014,19.613 149.165,19.679C149.208,19.722 149.274,19.701 149.297,19.658C150.036,18.568 150.493,18.199 151.146,18.199C151.321,18.199 152.04,18.285 152.52,18.351C153.192,18.46 153.868,18.525 154.174,18.503C154.217,18.503 154.217,18.568 154.174,18.611C153.564,19.308 150.146,22.878 149.579,23.402C149.145,23.794 148.383,24.511 147.946,25.122C147.901,25.208 147.946,25.558 148.012,25.71C148.055,25.796 148.12,25.818 148.163,25.775C148.665,25.339 149.034,24.97 149.491,24.97C149.862,24.97 150.231,25.122 150.95,25.449C151.713,25.775 152.583,26.189 153.303,26.189C154.956,26.189 156.415,24.687 157.069,23.466C157.135,23.359 157.223,22.902 157.178,22.64C157.178,22.574 157.024,22.488 157.003,22.509C156.11,23.968 155.196,24.665 154.305,24.665C153.848,24.665 153.323,24.556 152.495,24.23C151.561,23.837 150.733,23.642 150.624,23.621C150.581,23.621 150.581,23.554 150.624,23.466C150.799,23.271 153.999,19.917 154.825,19.113C155.565,18.394 156.829,17.109 156.939,16.871C157.003,16.761 157.003,16.369 156.939,16.195C156.917,16.152 156.809,16.109 156.786,16.152C156.524,16.456 155.719,17.261 155.065,17.261ZM162.794,17.544C163.403,17.544 163.71,18.001 163.71,18.503C163.71,19.091 163.403,19.527 162.926,19.831C162.273,20.224 161.335,20.527 160.661,20.658C160.616,20.658 160.573,20.593 160.596,20.527C160.899,18.46 161.969,17.544 162.794,17.544ZM163.796,16.499C162.991,16.499 161.555,17.154 160.684,17.915C159.355,19.07 158.788,21.203 158.788,22.792C158.788,24.359 159.333,25.863 160.944,25.863C162.251,25.863 163.948,25.056 164.95,23.664C165.036,23.511 165.104,23.14 165.104,22.988C165.104,22.923 165.016,22.835 164.993,22.835C163.905,23.947 162.926,24.382 162.055,24.382C160.878,24.382 160.421,23.423 160.421,22.117C160.421,21.986 160.421,21.833 160.442,21.726C160.465,21.638 160.53,21.55 160.596,21.55C161.249,21.333 162.163,21.029 163.077,20.572C164.493,19.853 165.299,19.046 165.255,17.98C165.213,17.109 164.604,16.499 163.796,16.499Z" style="fill:rgb(35,31,32);fill-rule:nonzero;"/>
        <rect x="46.222" y="11.642" width="3.184" height="14.124" style="fill:rgb(3,4,4);fill-rule:nonzero;"/>
        <path d="M52.277,22.497C53.116,22.936 54.457,23.376 55.818,23.376C57.285,23.376 58.061,22.77 58.061,21.827C58.061,20.967 57.39,20.444 55.693,19.857C53.346,19.018 51.795,17.719 51.795,15.644C51.795,13.234 53.828,11.411 57.139,11.411C58.752,11.411 59.905,11.726 60.744,12.124L60.031,14.68C59.486,14.408 58.459,14.01 57.097,14.01C55.714,14.01 55.043,14.66 55.043,15.372C55.043,16.273 55.818,16.671 57.663,17.384C60.156,18.306 61.309,19.605 61.309,21.617C61.309,23.985 59.507,25.997 55.63,25.997C54.017,25.997 52.424,25.556 51.627,25.116L52.277,22.497Z" style="fill:rgb(3,4,4);fill-rule:nonzero;"/>
        <rect x="63.509" y="11.642" width="3.185" height="14.124" style="fill:rgb(3,4,4);fill-rule:nonzero;"/>
        <path d="M76.313,19.752L75.433,16.755C75.202,15.916 74.951,14.848 74.741,14.03L74.678,14.03C74.49,14.869 74.259,15.938 74.05,16.755L73.19,19.752L76.313,19.752ZM72.73,22.14L71.744,25.766L68.433,25.766L72.75,11.642L76.92,11.642L81.321,25.766L77.884,25.766L76.793,22.14L72.73,22.14Z" style="fill:rgb(3,4,4);fill-rule:nonzero;"/>
        <path d="M94.056,0.025L94.056,37M30.861,0.025L30.861,37" style="fill:none;stroke:rgb(35,31,32);stroke-width:0.75px;"/>
        <path d="M8.378,28.777C10.072,28.747 14.013,28.602 15.415,27.258L15.415,26.704L13.633,25.887L13.4,25.098C13.663,25.01 13.925,24.894 14.101,24.602L14.101,23.201C13.225,22.675 12.028,22.237 10.627,22.15C10.16,21.508 10.13,20.573 10.101,19.698C10.831,19.639 11.532,19.493 12.174,19.143C12.232,18.413 11.444,17.333 10.51,17.012L10.51,16.661C13.049,15.523 13.867,15.376 15.297,12.603L15.297,12.049L14.889,12.049L14.889,11.815C15.648,11.406 16.232,10.823 16.728,10.005C15.823,8.75 15.793,8.166 13.429,8.107L13.429,7.757L14.305,7.203L14.305,5.918C12.962,4.663 3.795,4.663 2.423,5.918L2.423,7.203L3.299,7.757L3.299,8.107C0.934,8.166 0.905,8.75 0,10.005C0.497,10.823 1.081,11.406 1.839,11.815L1.839,12.049L1.459,12.049L1.459,12.603C2.861,15.376 3.708,15.523 6.218,16.661L6.218,17.012C5.313,17.333 4.496,18.413 4.554,19.143C5.226,19.493 5.897,19.639 6.627,19.698C6.598,20.573 6.569,21.508 6.101,22.15C4.7,22.237 3.533,22.675 2.627,23.201L2.627,24.602C2.802,24.894 3.065,25.01 3.328,25.098L3.094,25.887L1.314,26.704L1.314,27.258C2.715,28.602 6.656,28.747 8.378,28.777C8.378,28.777 6.656,28.747 8.378,28.777Z" style="fill:rgb(35,31,32);fill-rule:nonzero;"/>
    </g>
</svg>
